{
	"asset":{
		"generator":"Khronos glTF Blender I/O v3.5.30",
		"version":"2.0"
	},
	"scene":0,
	"scenes":[
		{
			"name":"Scene",
			"nodes":[
				0,
				1,
				2
			]
		}
	],
	"nodes":[
		{
			"mesh":0,
			"name":"Body",
			"rotation":[
				0.11107729375362396,
				0,
				0,
				0.9938117861747742
			],
			"scale":[
				0.13103005290031433,
				0.13103005290031433,
				0.13103005290031433
			],
			"translation":[
				0,
				1.194441795349121,
				0.04371937736868858
			]
		},
		{
			"name":"Empty",
			"rotation":[
				0.7071068286895752,
				0,
				0,
				0.7071068286895752
			],
			"translation":[
				1.0248135328292847,
				1.37824285030365,
				-0.0019747018814086914
			]
		},
		{
			"name":"Empty.001",
			"rotation":[
				0.5040324926376343,
				0.4965655207633972,
				-0.5000952482223511,
				0.49927818775177
			],
			"translation":[
				-0.03158027306199074,
				1.3906115293502808,
				0.9530394077301025
			]
		}
	],
	"meshes":[
		{
			"name":"Cylinder",
			"primitives":[
				{
					"attributes":{
						"POSITION":0,
						"TEXCOORD_0":1,
						"NORMAL":2
					},
					"indices":3
				}
			]
		}
	],
	"accessors":[
		{
			"bufferView":0,
			"componentType":5126,
			"count":2162,
			"max":[
				7.737911224365234,
				1.3543376922607422,
				5.58336067199707
			],
			"min":[
				-7.737911224365234,
				-19.20301055908203,
				-1.238682746887207
			],
			"type":"VEC3"
		},
		{
			"bufferView":1,
			"componentType":5126,
			"count":2162,
			"type":"VEC2"
		},
		{
			"bufferView":2,
			"componentType":5126,
			"count":2162,
			"type":"VEC3"
		},
		{
			"bufferView":3,
			"componentType":5123,
			"count":10818,
			"type":"SCALAR"
		}
	],
	"bufferViews":[
		{
			"buffer":0,
			"byteLength":25944,
			"byteOffset":0,
			"target":34962
		},
		{
			"buffer":0,
			"byteLength":17296,
			"byteOffset":25944,
			"target":34962
		},
		{
			"buffer":0,
			"byteLength":25944,
			"byteOffset":43240,
			"target":34962
		},
		{
			"buffer":0,
			"byteLength":21636,
			"byteOffset":69184,
			"target":34963
		}
	],
	"buffers":[
		{
			"byteLength":90820,
			"uri":"data:application/octet-stream;base64,"
		}
	]
}
