{
	"asset":{
		"generator":"Khronos glTF Blender I/O v3.5.30",
		"version":"2.0"
	},
	"scene":0,
	"scenes":[
		{
			"name":"Scene",
			"nodes":[
				0
			]
		}
	],
	"nodes":[
		{
			"mesh":0,
			"name":"Body",
			"rotation":[
				0.11107729375362396,
				0,
				0,
				0.9938117861747742
			],
			"scale":[
				0.13103005290031433,
				0.13103005290031433,
				0.13103005290031433
			],
			"translation":[
				0,
				2.579181432723999,
				0.04371937736868858
			]
		}
	],
	"meshes":[
		{
			"name":"Cylinder",
			"primitives":[
				{
					"attributes":{
						"POSITION":0,
						"TEXCOORD_0":1,
						"NORMAL":2
					},
					"indices":3
				}
			]
		}
	],
	"accessors":[
		{
			"bufferView":0,
			"componentType":5126,
			"count":6918,
			"max":[
				7.737911224365234,
				1.3543376922607422,
				5.58336067199707
			],
			"min":[
				-7.737911224365234,
				-19.20301055908203,
				-1.238682746887207
			],
			"type":"VEC3"
		},
		{
			"bufferView":1,
			"componentType":5126,
			"count":6918,
			"type":"VEC2"
		},
		{
			"bufferView":2,
			"componentType":5126,
			"count":6918,
			"type":"VEC3"
		},
		{
			"bufferView":3,
			"componentType":5123,
			"count":10818,
			"type":"SCALAR"
		}
	],
	"bufferViews":[
		{
			"buffer":0,
			"byteLength":83016,
			"byteOffset":0,
			"target":34962
		},
		{
			"buffer":0,
			"byteLength":55344,
			"byteOffset":83016,
			"target":34962
		},
		{
			"buffer":0,
			"byteLength":83016,
			"byteOffset":138360,
			"target":34962
		},
		{
			"buffer":0,
			"byteLength":21636,
			"byteOffset":221376,
			"target":34963
		}
	],
	"buffers":[
		{
			"byteLength":243012,
			"uri":"data:application/octet-stream;base64,"
		}
	]
}
