{
  "accessors": [
    {
      "bufferView": 2,
      "componentType": 5126,
      "count": 16586,
      "max": [
        63.22568893432617,
        50.29536819458008,
        162.2678680419922
      ],
      "min": [
        -12.398099899291992,
        -67.23140716552734,
        0.0
      ],
      "type": "VEC3"
    },
    {
      "bufferView": 2,
      "byteOffset": 199032,
      "componentType": 5126,
      "count": 16586,
      "max": [
        0.9998869299888611,
        0.9984239339828491,
        1.0
      ],
      "min": [
        -0.9999067783355713,
        -0.9998095035552979,
        -1.0
      ],
      "type": "VEC3"
    },
    {
      "bufferView": 1,
      "componentType": 5126,
      "count": 16586,
      "max": [
        0.9995700120925903,
        0.9996100068092346
      ],
      "min": [
        0.0004299999854993075,
        0.00039000000106170774
      ],
      "type": "VEC2"
    },
    {
      "bufferView": 0,
      "componentType": 5125,
      "count": 17100,
      "type": "SCALAR"
    },
    {
      "bufferView": 2,
      "byteOffset": 398064,
      "componentType": 5126,
      "count": 13022,
      "max": [
        76.50311279296875,
        24.514759063720703,
        93.4761734008789
      ],
      "min": [
        -19.319490432739258,
        -39.726951599121094,
        26.8546199798584
      ],
      "type": "VEC3"
    },
    {
      "bufferView": 2,
      "byteOffset": 554328,
      "componentType": 5126,
      "count": 13022,
      "max": [
        0.9980525970458984,
        0.998487114906311,
        0.999804675579071
      ],
      "min": [
        -0.9997484683990479,
        -0.9993027448654175,
        -0.9997122883796692
      ],
      "type": "VEC3"
    },
    {
      "bufferView": 1,
      "byteOffset": 132688,
      "componentType": 5126,
      "count": 13022,
      "max": [
        0.9994099736213684,
        0.9994000196456909
      ],
      "min": [
        0.000590000010561198,
        0.0006000000284984708
      ],
      "type": "VEC2"
    },
    {
      "bufferView": 0,
      "byteOffset": 68400,
      "componentType": 5125,
      "count": 13062,
      "type": "SCALAR"
    },
    {
      "bufferView": 2,
      "byteOffset": 710592,
      "componentType": 5126,
      "count": 11088,
      "max": [
        4.5375800132751465,
        41.749168395996094,
        62.78036117553711
      ],
      "min": [
        -76.50311279296875,
        -24.42490005493164,
        8.298839569091797
      ],
      "type": "VEC3"
    },
    {
      "bufferView": 2,
      "byteOffset": 843648,
      "componentType": 5126,
      "count": 11088,
      "max": [
        0.9996134638786316,
        0.999294638633728,
        0.9994054436683655
      ],
      "min": [
        -0.9977995157241821,
        -0.99992835521698,
        -0.9997411966323853
      ],
      "type": "VEC3"
    },
    {
      "bufferView": 1,
      "byteOffset": 236864,
      "componentType": 5126,
      "count": 11088,
      "max": [
        0.9993299841880798,
        0.9993299841880798
      ],
      "min": [
        0.0006699999794363976,
        0.0006699999794363976
      ],
      "type": "VEC2"
    },
    {
      "bufferView": 0,
      "byteOffset": 120648,
      "componentType": 5125,
      "count": 11088,
      "type": "SCALAR"
    },
    {
      "bufferView": 2,
      "byteOffset": 976704,
      "componentType": 5126,
      "count": 8527,
      "max": [
        67.873779296875,
        55.860660552978516,
        116.26415252685547
      ],
      "min": [
        -28.566219329833984,
        -49.58015060424805,
        59.373939514160156
      ],
      "type": "VEC3"
    },
    {
      "bufferView": 2,
      "byteOffset": 1079028,
      "componentType": 5126,
      "count": 8527,
      "max": [
        0.9985108375549316,
        0.9995295405387878,
        0.9994741678237915
      ],
      "min": [
        -0.9998639225959778,
        -0.9997217655181885,
        -0.9998093843460083
      ],
      "type": "VEC3"
    },
    {
      "bufferView": 1,
      "byteOffset": 325568,
      "componentType": 5126,
      "count": 8527,
      "max": [
        0.9994099736213684,
        0.9994500279426575
      ],
      "min": [
        0.000590000010561198,
        0.0005499999970197678
      ],
      "type": "VEC2"
    },
    {
      "bufferView": 0,
      "byteOffset": 165000,
      "componentType": 5125,
      "count": 8568,
      "type": "SCALAR"
    },
    {
      "bufferView": 2,
      "byteOffset": 1181352,
      "componentType": 5126,
      "count": 13759,
      "max": [
        71.10658264160156,
        64.00404357910156,
        157.22360229492188
      ],
      "min": [
        2.671689987182617,
        -18.292959213256836,
        0.9041799902915955
      ],
      "type": "VEC3"
    },
    {
      "bufferView": 2,
      "byteOffset": 1346460,
      "componentType": 5126,
      "count": 13759,
      "max": [
        0.9998461604118347,
        0.998905599117279,
        1.0
      ],
      "min": [
        -0.9998907446861267,
        -0.9999430775642395,
        -1.0
      ],
      "type": "VEC3"
    },
    {
      "bufferView": 1,
      "byteOffset": 393784,
      "componentType": 5126,
      "count": 13759,
      "max": [
        0.9994900226593018,
        0.9994900226593018
      ],
      "min": [
        0.0005099999834783375,
        0.0005099999834783375
      ],
      "type": "VEC2"
    },
    {
      "bufferView": 0,
      "byteOffset": 199272,
      "componentType": 5125,
      "count": 14034,
      "type": "SCALAR"
    },
    {
      "bufferView": 2,
      "byteOffset": 1511568,
      "componentType": 5126,
      "count": 12732,
      "max": [
        25.835269927978516,
        67.23140716552734,
        64.18348693847656
      ],
      "min": [
        -51.938880920410156,
        9.05321979522705,
        0.5580300092697144
      ],
      "type": "VEC3"
    },
    {
      "bufferView": 2,
      "byteOffset": 1664352,
      "componentType": 5126,
      "count": 12732,
      "max": [
        0.9998663067817688,
        0.9999216794967651,
        0.9999521374702454
      ],
      "min": [
        -0.9995691776275635,
        -0.9997957348823547,
        -0.999982476234436
      ],
      "type": "VEC3"
    },
    {
      "bufferView": 1,
      "byteOffset": 503856,
      "componentType": 5126,
      "count": 12732,
      "max": [
        0.9993000030517578,
        0.9993199706077576
      ],
      "min": [
        0.000699999975040555,
        0.0006799999973736703
      ],
      "type": "VEC2"
    },
    {
      "bufferView": 0,
      "byteOffset": 255408,
      "componentType": 5125,
      "count": 12732,
      "type": "SCALAR"
    }
  ],
  "asset": {
    "extras": {
      "author": "APIL (https://sketchfab.com/apil_tgh)",
      "license": "CC-BY-4.0 (http://creativecommons.org/licenses/by/4.0/)",
      "source": "https://sketchfab.com/3d-models/2017001-02-coarctation-of-aorta-post-repair-a0ee60f8c3f34c90a69b23aa46e58301",
      "title": "2017001-02 Coarctation of aorta post repair"
    },
    "generator": "Sketchfab-12.68.0",
    "version": "2.0"
  },
  "bufferViews": [
    {
      "buffer": 0,
      "byteLength": 306336,
      "name": "floatBufferViews",
      "target": 34963
    },
    {
      "buffer": 0,
      "byteLength": 605712,
      "byteOffset": 306336,
      "byteStride": 8,
      "name": "floatBufferViews",
      "target": 34962
    },
    {
      "buffer": 0,
      "byteLength": 1817136,
      "byteOffset": 912048,
      "byteStride": 12,
      "name": "floatBufferViews",
      "target": 34962
    }
  ],
  "buffers": [
    {
      "byteLength": 2729184,
      "uri": "scene.bin"
    }
  ],
  "extensionsRequired": [
    "KHR_materials_pbrSpecularGlossiness"
  ],
  "extensionsUsed": [
    "KHR_materials_pbrSpecularGlossiness"
  ],
  "materials": [
    {
      "doubleSided": true,
      "extensions": {
        "KHR_materials_pbrSpecularGlossiness": {
          "diffuseFactor": [
            0.0,
            0.05126945837404322,
            1.0,
            1.0
          ],
          "glossinessFactor": 1.0,
          "specularFactor": [
            0.0,
            0.0,
            0.0
          ]
        }
      },
      "name": "Material.001"
    },
    {
      "doubleSided": true,
      "extensions": {
        "KHR_materials_pbrSpecularGlossiness": {
          "diffuseFactor": [
            0.0030352698354883722,
            0.5647115057049286,
            1.0,
            1.0
          ],
          "glossinessFactor": 1.0,
          "specularFactor": [
            0.0,
            0.0,
            0.0
          ]
        }
      },
      "name": "Material.002"
    },
    {
      "doubleSided": true,
      "extensions": {
        "KHR_materials_pbrSpecularGlossiness": {
          "diffuseFactor": [
            0.0,
            1.0,
            0.06480326669290572,
            1.0
          ],
          "glossinessFactor": 1.0,
          "specularFactor": [
            0.0,
            0.0,
            0.0
          ]
        }
      },
      "name": "Material.003"
    },
    {
      "doubleSided": true,
      "extensions": {
        "KHR_materials_pbrSpecularGlossiness": {
          "diffuseFactor": [
            1.0,
            0.0,
            0.011612245179743817,
            1.0
          ],
          "glossinessFactor": 1.0,
          "specularFactor": [
            0.0,
            0.0,
            0.0
          ]
        }
      },
      "name": "Material"
    },
    {
      "doubleSided": true,
      "extensions": {
        "KHR_materials_pbrSpecularGlossiness": {
          "diffuseFactor": [
            1.0,
            0.1651321945016676,
            0.0,
            1.0
          ],
          "glossinessFactor": 1.0,
          "specularFactor": [
            0.0,
            0.0,
            0.0
          ]
        }
      },
      "name": "Material.005"
    },
    {
      "doubleSided": true,
      "extensions": {
        "KHR_materials_pbrSpecularGlossiness": {
          "diffuseFactor": [
            1.0,
            0.665387298282272,
            0.0,
            1.0
          ],
          "glossinessFactor": 1.0,
          "specularFactor": [
            0.0,
            0.0,
            0.0
          ]
        }
      },
      "name": "Hemi.001"
    }
  ],
  "meshes": [
    {
      "name": "Ccase 001 Ao Repaired Remeshed Reduced90 Smoothed Aligned_0",
      "primitives": [
        {
          "attributes": {
            "NORMAL": 1,
            "POSITION": 0,
            "TEXCOORD_0": 2
          },
          "indices": 3,
          "material": 5,
          "mode": 4
        }
      ]
    },
    {
      "name": "Ccase 001 La Repaired Remeshed Reduced90 Smoothed Aligned_0",
      "primitives": [
        {
          "attributes": {
            "NORMAL": 5,
            "POSITION": 4,
            "TEXCOORD_0": 6
          },
          "indices": 7,
          "material": 4,
          "mode": 4
        }
      ]
    },
    {
      "name": "Ccase 001 Lv Repaired Remeshed Reduced90 Smoothed Aligned_0",
      "primitives": [
        {
          "attributes": {
            "NORMAL": 9,
            "POSITION": 8,
            "TEXCOORD_0": 10
          },
          "indices": 11,
          "material": 3,
          "mode": 4
        }
      ]
    },
    {
      "name": "Ccase 001 Pa Repaired Remeshed Reduced90 Smoothed Aligned_0",
      "primitives": [
        {
          "attributes": {
            "NORMAL": 13,
            "POSITION": 12,
            "TEXCOORD_0": 14
          },
          "indices": 15,
          "material": 2,
          "mode": 4
        }
      ]
    },
    {
      "name": "Ccase 001 Ra Repaired Remeshed Reduced90 Smoothed Aligned_0",
      "primitives": [
        {
          "attributes": {
            "NORMAL": 17,
            "POSITION": 16,
            "TEXCOORD_0": 18
          },
          "indices": 19,
          "material": 1,
          "mode": 4
        }
      ]
    },
    {
      "name": "Ccase 001 Rv Repaired Remeshed Reduced90 Smoothed Aligned_0",
      "primitives": [
        {
          "attributes": {
            "NORMAL": 21,
            "POSITION": 20,
            "TEXCOORD_0": 22
          },
          "indices": 23,
          "material": 0,
          "mode": 4
        }
      ]
    }
  ],
  "nodes": [
    {
      "children": [
        1
      ],
      "matrix": [
        1.0,
        0.0,
        0.0,
        0.0,
        0.0,
        2.220446049250313e-16,
        -1.0,
        0.0,
        0.0,
        1.0,
        2.220446049250313e-16,
        0.0,
        0.0,
        0.0,
        0.0,
        1.0
      ],
      "name": "Sketchfab_model"
    },
    {
      "children": [
        2,
        4,
        6,
        8,
        10,
        12,
        14,
        16,
        18
      ],
      "name": "Root"
    },
    {
      "children": [
        3
      ],
      "name": "Ccase 001 Ao Repaired Remeshed Reduced90 Smoothed Aligned"
    },
    {
      "mesh": 0,
      "name": "Ccase 001 Ao Repaired Remeshed Reduced90 Smoothed Aligned_0"
    },
    {
      "children": [
        5
      ],
      "name": "Ccase 001 La Repaired Remeshed Reduced90 Smoothed Aligned"
    },
    {
      "mesh": 1,
      "name": "Ccase 001 La Repaired Remeshed Reduced90 Smoothed Aligned_0"
    },
    {
      "children": [
        7
      ],
      "name": "Ccase 001 Lv Repaired Remeshed Reduced90 Smoothed Aligned"
    },
    {
      "mesh": 2,
      "name": "Ccase 001 Lv Repaired Remeshed Reduced90 Smoothed Aligned_0"
    },
    {
      "children": [
        9
      ],
      "name": "Ccase 001 Pa Repaired Remeshed Reduced90 Smoothed Aligned"
    },
    {
      "mesh": 3,
      "name": "Ccase 001 Pa Repaired Remeshed Reduced90 Smoothed Aligned_0"
    },
    {
      "children": [
        11
      ],
      "name": "Ccase 001 Ra Repaired Remeshed Reduced90 Smoothed Aligned"
    },
    {
      "mesh": 4,
      "name": "Ccase 001 Ra Repaired Remeshed Reduced90 Smoothed Aligned_0"
    },
    {
      "children": [
        13
      ],
      "name": "Ccase 001 Rv Repaired Remeshed Reduced90 Smoothed Aligned"
    },
    {
      "mesh": 5,
      "name": "Ccase 001 Rv Repaired Remeshed Reduced90 Smoothed Aligned_0"
    },
    {
      "children": [
        15
      ],
      "matrix": [
        1.0,
        0.0,
        0.0,
        0.0,
        0.0,
        1.0,
        0.0,
        0.0,
        0.0,
        0.0,
        1.0,
        0.0,
        0.0,
        0.0,
        317.77536,
        1.0
      ],
      "name": "Sun"
    },
    {
      "name": "Sun"
    },
    {
      "children": [
        17
      ],
      "matrix": [
        2.36218,
        0.0,
        0.0,
        0.0,
        0.0,
        -0.4893700000000001,
        -2.3109399999999996,
        0.0,
        0.0,
        2.3109399999999996,
        -0.4893700000000001,
        0.0,
        0.0,
        235.76038,
        0.0,
        1.0
      ],
      "name": "Hemi"
    },
    {
      "name": "Hemi"
    },
    {
      "children": [
        19
      ],
      "matrix": [
        -2.30751,
        0.3918000000000001,
        0.3190700000000001,
        0.0,
        0.10468000000000001,
        1.82995,
        -1.49005,
        0.0,
        -0.4943200000000001,
        -1.4414199999999997,
        -1.80496,
        0.0,
        0.0,
        -175.32983000000002,
        -158.53017,
        1.0
      ],
      "name": "Hemi.001"
    },
    {
      "name": "Hemi.001"
    }
  ],
  "scene": 0,
  "scenes": [
    {
      "name": "Sketchfab_Scene",
      "nodes": [
        0
      ]
    }
  ]
}
